name D:\school\WTK\thesis\model\3dpredictsim\Results\MidTarsalJoint\Fal_s1_bCst_PF_Natali2010_ls148_MT_k200_MTP_T10_ig24.mot
datacolumns 128
datarows 4
range 0.56782080 0.60189005
endheader
time	pelvis_tilt	pelvis_list	pelvis_rotation	pelvis_tx	pelvis_ty	pelvis_tz	hip_flexion_l	hip_adduction_l	hip_rotation_l	hip_flexion_r	hip_adduction_r	hip_rotation_r	knee_angle_l	knee_angle_r	ankle_angle_l	ankle_angle_r	subtalar_angle_l	subtalar_angle_r	mtj_angle_l	mtj_angle_r	mtp_angle_l	mtp_angle_r	lumbar_extension	lumbar_bending	lumbar_rotation	arm_flex_l	arm_add_l	arm_rot_l	arm_flex_r	arm_add_r	arm_rot_r	elbow_flex_l	elbow_flex_r	pro_sup_l	pro_sup_r	glut_med1_l/activation	glut_med2_l/activation	glut_med3_l/activation	glut_min1_l/activation	glut_min2_l/activation	glut_min3_l/activation	semimem_l/activation	semiten_l/activation	bifemlh_l/activation	bifemsh_l/activation	sar_l/activation	add_long_l/activation	add_brev_l/activation	add_mag1_l/activation	add_mag2_l/activation	add_mag3_l/activation	tfl_l/activation	pect_l/activation	grac_l/activation	glut_max1_l/activation	glut_max2_l/activation	glut_max3_l/activation	iliacus_l/activation	psoas_l/activation	quad_fem_l/activation	gem_l/activation	peri_l/activation	rect_fem_l/activation	vas_med_l/activation	vas_int_l/activation	vas_lat_l/activation	med_gas_l/activation	lat_gas_l/activation	soleus_l/activation	tib_post_l/activation	flex_dig_l/activation	flex_hal_l/activation	tib_ant_l/activation	per_brev_l/activation	per_long_l/activation	per_tert_l/activation	ext_dig_l/activation	ext_hal_l/activation	ercspn_l/activation	intobl_l/activation	extobl_l/activation	glut_med1_r/activation	glut_med2_r/activation	glut_med3_r/activation	glut_min1_r/activation	glut_min2_r/activation	glut_min3_r/activation	semimem_r/activation	semiten_r/activation	bifemlh_r/activation	bifemsh_r/activation	sar_r/activation	add_long_r/activation	add_brev_r/activation	add_mag1_r/activation	add_mag2_r/activation	add_mag3_r/activation	tfl_r/activation	pect_r/activation	grac_r/activation	glut_max1_r/activation	glut_max2_r/activation	glut_max3_r/activation	iliacus_r/activation	psoas_r/activation	quad_fem_r/activation	gem_r/activation	peri_r/activation	rect_fem_r/activation	vas_med_r/activation	vas_int_r/activation	vas_lat_r/activation	med_gas_r/activation	lat_gas_r/activation	soleus_r/activation	tib_post_r/activation	flex_dig_r/activation	flex_hal_r/activation	tib_ant_r/activation	per_brev_r/activation	per_long_r/activation	per_tert_r/activation	ext_dig_r/activation	ext_hal_r/activation	ercspn_r/activation	intobl_r/activation	extobl_r/activation	
          0.56782080	         -2.92857916	          2.04359065	         -5.22551292	          0.70977600	          0.91878189	          0.00233345	         29.72325644	          3.07749944	         -2.65845154	        -16.76735143	         -0.74637081	          6.74999400	        -10.79724640	         -6.73480981	          6.03746147	         -2.04635112	         -5.34568067	          6.01882471	         -0.45585350	          6.21006408	          0.90699418	         11.23167173	         -1.81317330	         -0.00897712	          2.06723704	         -5.42225638	        -13.46853992	          5.91968885	          4.89268248	        -13.44981726	         14.82556850	         17.78836892	         33.75434574	         86.51662706	         86.51662706	          0.09843843	          0.05000024	          0.05946369	          0.05000017	          0.05000023	          0.05000086	          0.25254331	          0.06019976	          0.09097684	          0.05946630	          0.05000472	          0.07599053	          0.17562712	          0.19463805	          0.13298535	          0.08743885	          0.05946473	          0.05001285	          0.11814600	          0.05946419	          0.05946416	          0.09780712	          0.05000030	          0.05000059	          0.26451836	          0.05008729	          0.05000078	          0.05000013	          0.05000040	          0.05000041	          0.05000033	          0.05946369	          0.05946372	          0.05946367	          0.05794190	          0.05000571	          0.05393370	          0.43152048	          0.27547427	          0.19832527	          0.08427536	          0.42953675	          0.06590124	          0.06101812	          0.14777950	          0.12605461	          0.31234455	          0.11506958	          0.08410361	          0.31873657	          0.21022820	          0.11896082	          0.05000120	          0.05000032	          0.05000027	          0.05946699	          0.11714523	          0.05000012	          0.05000015	          0.05000025	          0.05000075	          0.05000056	          0.34646616	          0.05000059	          0.05000069	          0.05941134	          0.05005022	          0.05000239	          0.44740125	          0.67382849	          0.05000133	          0.05803017	          0.07071873	          0.28300011	          0.05671311	          0.05222747	          0.05004040	          0.32354084	          0.43797915	          0.34963203	          0.28117884	          0.27870551	          0.34481928	          0.05000012	          0.05000092	          0.10780009	          0.05000044	          0.05000015	          0.05000057	          0.05000002	          0.05000003	          0.05000003	
          0.57917721	         -2.93017630	          2.13597290	         -5.55417023	          0.72657947	          0.91782133	          0.00215429	         29.20560696	          3.40642772	         -2.45713746	        -16.84330960	         -1.06566079	          6.54464183	        -10.88105688	         -8.28372731	          5.34730125	         -2.43681306	         -5.71424976	          6.95591054	         -0.50732063	          5.40400568	          0.90250194	         12.89102779	         -1.62868701	         -0.19590707	          2.13733420	         -6.27393840	        -13.46269820	          5.80868126	          4.71626199	        -13.45139208	         15.25122007	         17.29914866	         34.92204642	         86.51662706	         86.51662706	          0.08277204	          0.05946342	          0.05000024	          0.06235261	          0.05946425	          0.05000451	          0.21235119	          0.05061904	          0.07649789	          0.05000242	          0.05000068	          0.11895601	          0.23537027	          0.19937540	          0.15335239	          0.09101342	          0.05000112	          0.07073065	          0.09934358	          0.05000098	          0.05000057	          0.10292382	          0.07067301	          0.05547582	          0.49332325	          0.18632168	          0.12193700	          0.08410305	          0.16699657	          0.16523628	          0.14346722	          0.05000004	          0.05000009	          0.05000001	          0.05000008	          0.05000118	          0.05000062	          0.50092556	          0.26300597	          0.16676219	          0.19320456	          0.47002571	          0.05946509	          0.05130707	          0.12426035	          0.10599297	          0.26263553	          0.09675625	          0.07071852	          0.26800975	          0.17677039	          0.10002823	          0.05000472	          0.05000093	          0.05000078	          0.05000303	          0.09850184	          0.06722479	          0.06545845	          0.05000838	          0.05001013	          0.05001096	          0.29132618	          0.05395465	          0.05000330	          0.05000362	          0.05000223	          0.05000273	          0.37619723	          0.58585361	          0.05000035	          0.05000190	          0.05946401	          0.23796055	          0.05001130	          0.07296514	          0.12142045	          0.27204920	          0.36827526	          0.32698563	          0.26865955	          0.23921700	          0.31697739	          0.05000017	          0.05000491	          0.10760507	          0.05000082	          0.05000022	          0.05000082	          0.05000005	          0.07072153	          0.05000155	
          0.59053363	         -2.92811705	          2.22817848	         -5.85479266	          0.74375079	          0.91692097	          0.00198205	         28.57998695	          3.69042622	         -2.19668150	        -16.87150375	         -1.38723896	          6.33025235	        -11.41315934	         -9.91474369	          4.62835879	         -2.91870641	         -6.08269116	          7.87541049	         -0.68262985	          4.40976098	          0.89111338	         14.69407954	         -1.41848698	         -0.39379799	          2.19784660	         -7.17068584	        -13.45933267	          5.72919600	          4.45968551	        -13.45146456	         15.61860681	         16.87954401	         36.05203733	         86.51662706	         86.51662706	          0.16196552	          0.05000018	          0.12891795	          0.05242922	          0.05000061	          0.05000042	          0.19397571	          0.07857494	          0.08104376	          0.05000022	          0.05388729	          0.10002430	          0.19791142	          0.16764587	          0.12894715	          0.09721945	          0.05000092	          0.05949988	          0.08353419	          0.05000178	          0.08669837	          0.08654418	          0.05945468	          0.05404009	          0.41481071	          0.15666860	          0.10253094	          0.07071802	          0.14041904	          0.13893891	          0.12063439	          0.05897527	          0.06846594	          0.05761629	          0.05324265	          0.05000182	          0.05000388	          0.42120303	          0.24668699	          0.16863832	          0.16245599	          0.55093288	          0.05000122	          0.05000002	          0.11982511	          0.08912414	          0.29130446	          0.08135750	          0.05946371	          0.22535619	          0.14863743	          0.08410876	          0.05000618	          0.05000308	          0.05000226	          0.05000038	          0.08282568	          0.09374786	          0.05946646	          0.05946484	          0.05946447	          0.05946538	          0.24496199	          0.05948182	          0.05006418	          0.05002043	          0.05002837	          0.05946065	          0.31632562	          0.58411952	          0.05337962	          0.05000384	          0.05000051	          0.20008904	          0.14421620	          0.11026452	          0.10210662	          0.22875243	          0.30966413	          0.27690895	          0.23156842	          0.20114630	          0.26653123	          0.05000003	          0.05000071	          0.13585659	          0.05000016	          0.05000004	          0.05000023	          0.05000012	          0.05946618	          0.05946401	
          0.60189005	         -2.92373687	          2.31984271	         -6.12152214	          0.76116423	          0.91610225	          0.00180816	         27.83641872	          3.92517234	         -1.92837601	        -16.84339096	         -1.70712372	          6.11142533	        -11.94433375	        -11.62060315	          3.91879654	         -3.52669978	         -6.47058777	          8.75436529	         -0.66616527	          3.27000277	          0.91189726	         16.57254838	         -1.19482710	         -0.60102456	          2.24884068	         -8.08205824	        -13.45894377	          5.69017134	          4.14003648	        -13.45238969	         15.93643338	         16.51401800	         37.13801667	         86.51662706	         86.51662706	          0.25234327	          0.22912856	          0.27248314	          0.21775809	          0.17155317	          0.16377183	          0.16310440	          0.06607037	          0.06814567	          0.08410616	          0.05000465	          0.08410548	          0.16641384	          0.14096543	          0.10842624	          0.12076913	          0.05000148	          0.05003222	          0.10292315	          0.16470222	          0.13832029	          0.09779519	          0.05000036	          0.05000034	          0.34879349	          0.13173498	          0.14738370	          0.05946329	          0.11807147	          0.11682695	          0.10143555	          0.05000144	          0.05946316	          0.05000008	          0.05000014	          0.05000100	          0.05000113	          0.53854697	          0.33742817	          0.19182039	          0.42571655	          0.47668793	          0.21312269	          0.06552506	          0.11895351	          0.07494000	          0.26118768	          0.06840949	          0.05000026	          0.36437577	          0.12498190	          0.07072291	          0.05000293	          0.05000033	          0.05000028	          0.05000090	          0.07072688	          0.07882945	          0.05000257	          0.05000138	          0.05000206	          0.05000210	          0.21544483	          0.05002113	          0.05000091	          0.05000262	          0.05000142	          0.05000094	          0.28403652	          0.56468895	          0.05000017	          0.05000115	          0.05000100	          0.16824490	          0.12126667	          0.09271711	          0.15407565	          0.19234635	          0.26038094	          0.23283874	          0.19471438	          0.16913404	          0.22411287	          0.05000025	          0.07487913	          0.13710884	          0.05000123	          0.05167096	          0.05000086	          0.05426513	          0.05000211	          0.05000031	
